<svg width="21" height="26" viewBox="0 0 21 26" fill="none" xmlns="http://www.w3.org/2000/svg">
<path d="M6.56889 20.2943C5.43609 20.2943 4.52881 21.4099 4.52881 22.7873C4.52881 24.1646 5.43609 25.2802 6.56889 25.2802C7.7017 25.2802 8.61926 24.1646 8.61926 22.7873C8.61926 21.4099 7.7017 20.2943 6.56889 20.2943Z" fill="#444444"/>
<path d="M7.69674 14.062H15.3343C16.1032 14.062 16.7746 13.5448 17.1283 12.7782L20.7933 4.68863C20.8754 4.51411 20.9215 4.30844 20.9215 4.09033C20.9215 3.39855 20.4602 2.84389 19.8963 2.84389H4.73909L3.76515 0.350952H0.417969V2.84389H2.46834L6.15383 12.2983L4.76984 15.3521C4.61092 15.7136 4.51866 16.1187 4.51866 16.555C4.51866 17.9323 5.43622 19.0479 6.56903 19.0479H18.8711V16.5549H7.00474C6.8612 16.5549 6.74846 16.4178 6.74846 16.2433C6.74846 16.1872 6.7587 16.1374 6.77922 16.0937L7.69674 14.062Z" fill="#444444"/>
<path d="M16.8208 20.2943C15.688 20.2943 14.7808 21.4099 14.7808 22.7873C14.7808 24.1646 15.688 25.2802 16.8208 25.2802C17.9537 25.2802 18.8712 24.1646 18.8712 22.7873C18.8712 21.4099 17.9537 20.2943 16.8208 20.2943Z" fill="#444444"/>
</svg>
