<svg width="19" height="19" viewBox="0 0 19 19" fill="none" xmlns="http://www.w3.org/2000/svg">
<g clip-path="url(#clip0)">
<path d="M9.1445 0.848633C4.15048 0.848633 0.0878906 4.88583 0.0878906 9.84863C0.0878906 14.8114 4.15048 18.8486 9.1445 18.8486C14.1385 18.8486 18.2011 14.8114 18.2011 9.84863C18.2011 4.88583 14.1385 0.848633 9.1445 0.848633ZM13.4517 14.5038C13.3045 14.6501 13.1113 14.7237 12.9181 14.7237C12.7249 14.7237 12.5316 14.6501 12.3846 14.5038L8.61093 10.7539C8.46901 10.6137 8.38982 10.4231 8.38982 10.2237V5.34863C8.38982 4.9339 8.72784 4.59868 9.1445 4.59868C9.56115 4.59868 9.89917 4.9339 9.89917 5.34863V9.91318L13.4517 13.4434C13.7467 13.7367 13.7467 14.2106 13.4517 14.5038Z" fill="#444444"/>
</g>
<defs>
<clipPath id="clip0">
<rect width="18.1132" height="18" fill="white" transform="translate(0.0878906 0.848633)"/>
</clipPath>
</defs>
</svg>
