<svg width="22" height="22" viewBox="0 0 22 22" fill="none" xmlns="http://www.w3.org/2000/svg">
<path d="M13.423 11.0001L21.6485 2.77429C21.8748 2.54785 21.9996 2.24575 22 1.92362C22 1.60131 21.8752 1.29885 21.6485 1.07277L20.9277 0.352139C20.7011 0.125163 20.399 0.000854492 20.0765 0.000854492C19.7546 0.000854492 19.4525 0.125163 19.2259 0.352139L11.0004 8.57746L2.7745 0.352139C2.54824 0.125163 2.24597 0.000854492 1.92366 0.000854492C1.60171 0.000854492 1.29943 0.125163 1.07317 0.352139L0.352 1.07277C-0.117333 1.54211 -0.117333 2.30549 0.352 2.77429L8.57767 11.0001L0.352 19.2256C0.125561 19.4524 0.000894309 19.7545 0.000894309 20.0767C0.000894309 20.3988 0.125561 20.7009 0.352 20.9275L1.07299 21.6481C1.29925 21.8749 1.60171 21.9994 1.92348 21.9994C2.24579 21.9994 2.54806 21.8749 2.77433 21.6481L11.0002 13.4226L19.2257 21.6481C19.4523 21.8749 19.7544 21.9994 20.0763 21.9994H20.0767C20.3988 21.9994 20.7009 21.8749 20.9275 21.6481L21.6484 20.9275C21.8746 20.7011 21.9995 20.3988 21.9995 20.0767C21.9995 19.7545 21.8746 19.4524 21.6484 19.2258L13.423 11.0001Z" fill="#444444"/>
</svg>
