<svg width="16" height="16" viewBox="0 0 16 16" fill="none" xmlns="http://www.w3.org/2000/svg">
<g clip-path="url(#clip0)">
<path d="M0.827628 16C0.616869 16 0.406109 15.9199 0.24598 15.7585C-0.0754831 15.4371 -0.0754831 14.9159 0.24598 14.5944L14.5993 0.241098C14.9208 -0.0803659 15.442 -0.0803659 15.7634 0.241098C16.0849 0.562561 16.0849 1.08373 15.7634 1.4054L1.41028 15.7585C1.24895 15.9189 1.03819 16 0.827628 16Z" fill="#C4C4C4"/>
<path d="M15.182 16C14.9712 16 14.7607 15.9199 14.6003 15.7585L0.24598 1.4054C-0.0754831 1.08373 -0.0754831 0.562561 0.24598 0.241098C0.567444 -0.0803659 1.08862 -0.0803659 1.41028 0.241098L15.7634 14.5944C16.0849 14.9159 16.0849 15.4371 15.7634 15.7585C15.6021 15.9189 15.3915 16 15.182 16Z" fill="#C4C4C4"/>
</g>
<defs>
<clipPath id="clip0">
<rect width="16" height="16" fill="white"/>
</clipPath>
</defs>
</svg>
