<svg width="19" height="19" viewBox="0 0 19 19" fill="none" xmlns="http://www.w3.org/2000/svg">
<g clip-path="url(#clip0)">
<path d="M9.91097 5.03662C7.34267 5.03662 5.26343 7.10512 5.26343 9.65512C5.26343 12.2074 7.34494 14.2736 9.91097 14.2736C12.4793 14.2736 14.5585 12.2051 14.5585 9.65512C14.5585 7.10287 12.477 5.03662 9.91097 5.03662ZM9.91097 12.6529C8.2438 12.6529 6.89437 11.3111 6.89437 9.65512C6.89437 7.99912 8.24456 6.65737 9.91097 6.65737C11.5774 6.65737 12.9276 7.99912 12.9276 9.65512C12.9283 11.3111 11.5781 12.6529 9.91097 12.6529Z" fill="#444444"/>
<path d="M13.6419 0.715964C11.9755 0.638714 7.84798 0.642464 6.18006 0.715964C4.7144 0.784214 3.42157 1.13596 2.3793 2.17171C0.637417 3.90271 0.860058 6.23521 0.860058 9.65596C0.860058 13.157 0.663832 15.4355 2.3793 17.1402C4.12798 18.8772 6.50911 18.65 9.91062 18.65C13.4004 18.65 14.605 18.6522 15.8389 18.1775C17.5167 17.5302 18.7831 16.04 18.9069 13.3632C18.9853 11.7065 18.9808 7.60546 18.9069 5.94796C18.7574 2.78821 17.051 0.871964 13.6419 0.715964ZM16.2797 15.995C15.1378 17.1297 13.5536 17.0285 9.88874 17.0285C6.11515 17.0285 4.60194 17.084 3.49779 15.9837C2.2261 14.726 2.45628 12.7062 2.45628 9.64396C2.45628 5.50021 2.02836 2.51596 6.21327 2.30296C7.17478 2.26921 7.45779 2.25796 9.87817 2.25796L9.91213 2.28046C13.934 2.28046 17.0895 1.86196 17.2789 6.01996C17.3219 6.96871 17.3318 7.25371 17.3318 9.65521C17.331 13.3617 17.4019 14.8745 16.2797 15.995Z" fill="#444444"/>
<path d="M14.7425 5.93364C15.3423 5.93364 15.8286 5.45045 15.8286 4.8544C15.8286 4.25834 15.3423 3.77515 14.7425 3.77515C14.1427 3.77515 13.6565 4.25834 13.6565 4.8544C13.6565 5.45045 14.1427 5.93364 14.7425 5.93364Z" fill="#444444"/>
</g>
<defs>
<clipPath id="clip0">
<rect width="18.1132" height="18" fill="white" transform="translate(0.851318 0.658203)"/>
</clipPath>
</defs>
</svg>
