<svg width="20" height="18" viewBox="0 0 20 18" fill="none" xmlns="http://www.w3.org/2000/svg">
<path d="M8.16017 10.5464C6.34178 8.82838 5.9312 7.11031 5.83857 6.42196C5.81269 6.23163 5.88201 6.04076 6.02612 5.90555L7.49766 4.51582C7.71412 4.31143 7.75253 3.99289 7.59028 3.74772L5.24733 0.310342C5.06783 0.0388677 4.69926 -0.0591102 4.39627 0.0841008L0.634992 1.75779C0.389975 1.87178 0.245859 2.11774 0.273678 2.37445C0.470758 4.14341 1.287 8.49196 5.80999 12.7657C10.333 17.0395 14.9348 17.8104 16.8081 17.9966C17.0797 18.0229 17.3401 17.8867 17.4607 17.6552L19.2321 14.1014C19.3832 13.8158 19.2801 13.4685 18.994 13.2986L15.3559 11.0855C15.0966 10.9321 14.7594 10.9681 14.5429 11.1724L13.0721 12.5628C12.929 12.6989 12.7269 12.7644 12.5255 12.74C11.797 12.6524 9.97857 12.2645 8.16017 10.5464Z" fill="#444444"/>
<path d="M15.3808 9.62063C15.018 9.62063 14.7238 9.34274 14.7238 8.99995C14.7208 6.43017 12.5167 4.34768 9.79683 4.34477C9.43401 4.34477 9.13989 4.06688 9.13989 3.72408C9.13989 3.38129 9.43401 3.10339 9.79683 3.10339C13.242 3.10699 16.0339 5.74486 16.0377 8.99995C16.0377 9.34274 15.7436 9.62063 15.3808 9.62063Z" fill="#444444"/>
<path d="M18.6654 9.62069C18.3026 9.62069 18.0085 9.3428 18.0085 9C18.0034 4.71702 14.3299 1.24617 9.79683 1.24138C9.43401 1.24138 9.13989 0.963487 9.13989 0.62069C9.13989 0.277892 9.43401 0 9.79683 0C15.0552 0.0054732 19.3166 4.03171 19.3224 9C19.3224 9.16462 19.2532 9.32249 19.13 9.43889C19.0068 9.5553 18.8397 9.62069 18.6654 9.62069Z" fill="#444444"/>
</svg>
