<svg width="20" height="24" viewBox="0 0 20 24" fill="none" xmlns="http://www.w3.org/2000/svg">
<path fill-rule="evenodd" clip-rule="evenodd" d="M0.460938 8.90184C0.460938 9.45982 0.481358 10.0016 0.560306 10.5361C0.696318 11.4593 0.998637 12.4097 1.4188 13.2085C1.79288 13.9195 2.16906 14.5485 2.70931 15.1677C2.96705 15.4629 3.29609 15.8382 3.60337 16.0793C3.79567 16.2302 3.9758 16.4222 4.25501 16.6269L4.78475 17.0049C5.28477 17.3302 5.80281 17.5968 6.34876 17.8552C7.60205 18.4485 9.21424 18.7228 10.6412 18.7228C12.1219 18.7228 13.3106 18.4025 14.471 17.9178C16.1375 17.2218 17.5243 16.0432 18.5284 14.6288C19.0625 13.8764 19.2843 13.382 19.2843 12.3807C19.2843 11.7629 19.0517 11.2039 18.7349 10.7431C18.5161 10.4248 18.2496 10.1471 17.9417 9.90248C17.4555 9.51621 16.5831 9.18591 15.9077 9.18591C15.4954 9.18591 15.0276 9.22072 14.6698 9.32477C14.3659 9.41302 14.1906 9.49605 13.9336 9.6273C13.7036 9.74473 13.5119 9.88458 13.3049 10.0309C12.8202 10.3735 11.1999 11.5196 10.8509 11.7019C10.2733 12.0037 9.58187 11.9906 8.98113 11.7625C8.53695 11.5939 8.22425 11.2647 8.00345 10.882C7.59439 10.1724 7.78203 9.08891 8.40875 8.5566C8.76 8.25829 9.94439 7.49408 10.4072 7.16758L12.5889 5.66663C12.6656 5.6125 12.712 5.5798 12.7932 5.52735C13.1209 5.31547 13.3626 5.11881 13.3626 4.66586C13.3626 4.38547 13.1122 4.11423 12.8594 4.00272C12.3136 3.76208 11.8925 4.19247 11.4977 4.45271C10.5703 5.0644 9.66127 5.71203 8.74739 6.34247L7.4048 7.28234C7.21971 7.41739 7.05505 7.57218 6.91544 7.74586L6.82432 7.84947C6.43102 8.29862 6.08022 9.18182 6.08022 9.77744C6.08022 10.42 6.15963 10.9694 6.44108 11.4975C6.67256 11.9317 6.87535 12.1916 7.22046 12.5167C7.36817 12.656 7.53389 12.8019 7.71298 12.9061C8.37137 13.2894 9.03561 13.5402 9.8348 13.5402C10.1155 13.5402 10.5645 13.4808 10.7897 13.4194C11.7072 13.1686 12.1179 12.8033 12.8693 12.2959C13.2874 12.0137 14.3755 11.2216 14.7724 11.0069C16.4697 10.0887 18.4102 11.9166 17.2433 13.564C17.1419 13.7069 17.0555 13.8531 16.9447 13.9934C16.5945 14.4365 16.3153 14.7308 15.9014 15.1198C14.6211 16.323 12.5599 17.1373 10.5405 17.1373C9.04207 17.1373 7.69467 16.7666 6.42517 16.1034C6.08742 15.9267 5.7857 15.7384 5.48607 15.518C5.43113 15.4777 5.39825 15.4518 5.34618 15.4129C5.05375 15.1941 4.76974 14.9561 4.52401 14.694C4.3002 14.4552 4.13613 14.3083 3.91681 14.0337C3.69014 13.7499 3.47518 13.4695 3.29174 13.1533C3.16279 12.931 3.04812 12.7244 2.92998 12.4994C2.37456 11.4401 2.14924 10.26 2.14924 9.0438C2.14924 7.28008 2.79127 5.8633 3.75154 4.5614L3.9713 4.29454C4.05146 4.20587 4.11135 4.13975 4.19706 4.057C4.25441 4.00145 4.25906 3.98116 4.31025 3.92645C4.46351 3.76307 4.64666 3.6235 4.81432 3.47703C4.86417 3.43333 4.88953 3.40062 4.94253 3.36073C6.50833 2.18289 8.11378 1.58953 10.1876 1.58953C12.1243 1.58953 13.9795 2.31823 15.4365 3.47563C15.7656 3.73699 16.0659 4.01922 16.3436 4.32752C16.6936 4.71605 17.0253 5.12544 17.285 5.57331C17.4597 5.87471 17.622 6.08307 18.0386 6.14497C18.2966 6.18331 18.5662 6.05431 18.6992 5.93844C19.0258 5.65409 19.0556 5.22581 18.8103 4.87436C18.6603 4.65924 18.5363 4.42495 18.3774 4.21602C18.2534 4.05319 18.1498 3.89248 18.0138 3.72923C17.9405 3.64155 17.8857 3.58107 17.8119 3.49296C17.468 3.08146 17.0394 2.65163 16.6096 2.32654C15.7675 1.6899 15.7016 1.63183 14.7498 1.11515C13.9753 0.694768 12.8577 0.31048 11.9518 0.169357C10.4452 -0.0655033 9.20404 -0.0786118 7.70308 0.273685C7.10262 0.414661 6.52994 0.600736 5.97905 0.855486C4.89164 1.35848 3.93302 2.00089 3.09989 2.81361L2.82955 3.10402C2.36615 3.67243 2.11681 3.91066 1.73734 4.56309C0.967568 5.88712 0.460938 7.34705 0.460938 8.90184ZM5.34947 19.693C5.34947 20.2443 5.80911 20.398 6.1392 20.5368C6.52815 20.7006 6.97203 20.8375 7.40691 20.9555C9.94754 21.6446 12.4386 21.4778 14.8747 20.5687C15.2468 20.4297 15.6557 20.2196 15.6557 19.7403C15.6557 19.3104 15.2742 18.9358 14.8997 18.9358C14.4297 18.9358 14.6171 18.9527 14.2559 19.0883C14.0918 19.1498 13.9692 19.1931 13.8018 19.2534C13.4923 19.3651 13.1658 19.4489 12.8334 19.5273C10.8313 20.0006 8.75085 19.807 6.91903 19.1182C6.67961 19.0283 6.50143 18.9293 6.26755 18.9001C5.84243 18.8475 5.34947 19.2049 5.34947 19.693ZM10.616 22.4145C9.80839 22.4145 9.43852 22.3929 8.65733 22.266L7.23938 21.9412C6.33631 21.9412 6.04554 23.1127 6.86891 23.4722C6.95657 23.5105 6.9986 23.5146 7.09722 23.542C7.19599 23.5693 7.24268 23.5867 7.35032 23.6118C8.81885 23.9553 9.20764 24 10.7672 24C11.5423 24 12.407 23.8645 13.035 23.7161C13.8095 23.533 14.5722 23.4506 14.5722 22.6512C14.5722 22.3701 14.3502 22.0823 14.0834 21.9741C13.6657 21.8046 13.4684 21.9548 13.0263 22.075C12.293 22.2745 11.4167 22.4145 10.616 22.4145Z" fill="#FFA09F"/>
</svg>
